# xmcd
#
# Track frame offsets:
#	150
#	12679
#	22111
#	34164
#	48389
#	61851
#	76002
#	88081
#	101925
#	116527
#	131159
#	143745
#	156120
#	166395
#	177442
#	190587
#	204535
#	222515
#	233501
#	243924
#	254040
#	265482
#	279317
#	287690
#	304772
#	317031
#
# Disc length: 4385 seconds
#
# Revision: 1
# Processed by: cddbd v1.5.2PL0 Copyright (c) Steve Scherf et al.
# Submitted via: audiograbber 1.83.01
#
DISCID=7d111f1a
DTITLE=Various Artist - Chicago HIt Factory - The Vee Jay Story - 1953-1966  (
DTITLE=CD9)
DYEAR=2014
DGENRE=Oldies
TTITLE0=Staple Singers - If I Could Hear My Mother Pray
TTITLE1=Staple Singers - This May Be My Last Time
TTITLE2=Kelly Brothers - Prayer For Tomorrow
TTITLE3=Silver Quintette - Sinner's Crossroads
TTITLE4=Staple Singers - Uncloudy Day
TTITLE5=Swan Silvertones - Sinner Man
TTITLE6=Staple Singers - Let Me Ride (Swing Down Chariot)
TTITLE7=Harmonizing Four - Motherless Child
TTITLE8=Mighty Skylights - If Jesus Came To Your House
TTITLE9=Interns - The Road Home
TTITLE10=Swan Silvertones - Oh Mary, Don't You Weep
TTITLE11=Original Five Blind Boys Of Mississippi - Leave You In The Hands Of Th
TTITLE11=e Lord
TTITLE12=Staple Singers - So Soon
TTITLE13=Friendly Brothers - Operator
TTITLE14=Highway QCs - God Has Not Promised
TTITLE15=Harmonizing Four - Wade In The Water
TTITLE16=Caravans - What Will Tomorrow Bring 
TTITLE17=Original Five Blind Boys Of Alabama - I Can See Everybody's Mother
TTITLE18=Watson Sisters - He Lives
TTITLE19=Marion Williams and The Stars Of Faith - Surely God Is Able
TTITLE20=Highway QCs - Walk With Me
TTITLE21=Dorothy Love Coates and The Gospel Harmonettes - Camp Meeting
TTITLE22=Original Blind Boys Of Alabama - I'm Journeying On
TTITLE23=Original Five Blind Boys Of Alabama - Precious Lord
TTITLE24=Argo Gospel Singers - Jesus Is The Answer
TTITLE25=Swan Silvertones - Nobody But You
EXTD=
EXTT0=
EXTT1=
EXTT2=
EXTT3=
EXTT4=
EXTT5=
EXTT6=
EXTT7=
EXTT8=
EXTT9=
EXTT10=
EXTT11=
EXTT12=
EXTT13=
EXTT14=
EXTT15=
EXTT16=
EXTT17=
EXTT18=
EXTT19=
EXTT20=
EXTT21=
EXTT22=
EXTT23=
EXTT24=
EXTT25=
PLAYORDER=
